<svg t="1732967648029" class="icon" viewBox="0 0 1024 1024" version="1.1" xmlns="http://www.w3.org/2000/svg" p-id="3995" width="40" height="40"><path d="M0 0h1024v1024H0z" fill="#6781fe" fill-opacity=".01" p-id="3996"></path><path d="M622.250667 699.733333l-35.498667-81.066666h-149.504l-35.498667 81.066666-78.165333-34.133333 46.677333-106.666667 39.082667 17.066667-39.082667-17.066667L512 234.88l141.738667 324.053333-39.082667 17.066667 39.082667-17.066667 46.677333 106.666667-78.165333 34.133333z m-147.669334-166.4h74.837334L512 447.786667l-37.418667 85.546666z" fill="#6781fe" p-id="3997"></path><path d="M28.842667 490.496l14.677333-72.32C87.722667 200.576 281.130667 42.666667 503.466667 42.666667c222.378667 0 415.786667 157.952 459.946666 375.509333l-83.669333 16.938667C843.648 257.152 685.397333 128 503.466667 128 348.373333 128 210.474667 221.909333 150.784 359.893333l49.066667-16.341333 27.008 80.938667-198.016 66.005333zM503.466667 981.333333c-222.336 0-415.744-157.909333-459.946667-375.509333l83.626667-16.981333C163.285333 766.848 321.536 896 503.466667 896a385.493333 385.493333 0 0 0 350.549333-226.944l-27.989333 10.794667-30.677334-79.658667 183.552-70.570667-15.445333 76.245334C919.253333 823.424 725.845333 981.333333 503.466667 981.333333z" fill="#6781fe" p-id="3998"></path></svg>